<svg xmlns="http://www.w3.org/2000/svg" width="44px" height="44px" viewBox="-17319.602 -8368.981 43.938 44.705">
  <defs>
    <style>
      .cls-1 {
        fill: #3da751;
      }
    </style>
  </defs>
  <g id="calendar" transform="translate(-17334.902 -8380.081)">
    <g id="Group_196" data-name="Group 196" transform="translate(15.3 11.1)">
      <path id="Path_322" data-name="Path 322" class="cls-1" d="M59.238,21.66A10.554,10.554,0,0,0,38.8,17.945H22.72V12.624H20.813v5.33H15.3V55.8H55.341V29.829A10.534,10.534,0,0,0,59.238,21.66Zm-10.56-8.653A8.506,8.506,0,0,1,57.33,21.66a8.653,8.653,0,1,1-8.653-8.653Zm-10.4,6.845a10.731,10.731,0,0,0-.155,1.807,10.465,10.465,0,0,0,2.09,6.279H17.107V19.853H38.282ZM53.433,53.9H17.107V29.838H42.024v-.009A10.482,10.482,0,0,0,53.433,31.07Z" transform="translate(-15.3 -11.1)"/>
      <path id="Path_323" data-name="Path 323" class="cls-1" d="M377.5,51.1l-3.989-2.574V41.3H371.7v8.278l4.755,3.14Z" transform="translate(-339.171 -38.544)"/>
      <path id="Path_324" data-name="Path 324" class="cls-1" d="M135.1,276.082h2.382V286.35h2.756V273.7H135.1Z" transform="translate(-124.166 -249.732)"/>
      <path id="Path_325" data-name="Path 325" class="cls-1" d="M224.73,269.5a4.43,4.43,0,0,0-3.9,1.807,7.825,7.825,0,0,0-1.333,4.755,8.019,8.019,0,0,0,1.333,4.755,4.44,4.44,0,0,0,3.9,1.807,4.327,4.327,0,0,0,3.9-1.807,7.825,7.825,0,0,0,1.333-4.755,8.019,8.019,0,0,0-1.333-4.755A4.419,4.419,0,0,0,224.73,269.5Zm2,9.611a2.1,2.1,0,0,1-1.9,1.141,1.988,1.988,0,0,1-1.9-1.141,8.32,8.32,0,0,1,0-6.079,1.913,1.913,0,0,1,1.9-1.141,1.988,1.988,0,0,1,1.9,1.141,8.32,8.32,0,0,1,0,6.079Z" transform="translate(-200.862 -245.915)"/>
    </g>
  </g>
</svg>
